<svg width="22" height="18" viewBox="0 0 22 18" fill="none" xmlns="http://www.w3.org/2000/svg">
<path d="M12.3246 17.6757C12.281 17.6321 12.2464 17.5804 12.2229 17.5235C12.1993 17.4666 12.1871 17.4056 12.1871 17.344C12.1871 17.2824 12.1993 17.2214 12.2229 17.1645C12.2464 17.1076 12.281 17.0559 12.3246 17.0124L19.9617 9.37526L0.468748 9.37526C0.344427 9.37526 0.225199 9.32588 0.137291 9.23797C0.0493832 9.15006 -1.90735e-06 9.03083 -1.90735e-06 8.90651C-1.90735e-06 8.78219 0.0493832 8.66296 0.137291 8.57505C0.225199 8.48715 0.344427 8.43776 0.468748 8.43776L19.9617 8.43776L12.3246 0.800651C12.2811 0.7571 12.2465 0.705396 12.2229 0.648493C12.1994 0.59159 12.1872 0.530602 12.1872 0.469011C12.1872 0.407419 12.1994 0.346431 12.2229 0.289528C12.2465 0.232625 12.2811 0.180921 12.3246 0.13737C12.3682 0.0938181 12.4199 0.0592711 12.4768 0.0357011C12.5337 0.0121311 12.5947 0 12.6562 0C12.7178 0 12.7788 0.0121311 12.8357 0.0357011C12.8926 0.0592711 12.9443 0.0938181 12.9879 0.13737L21.4254 8.57487C21.469 8.6184 21.5035 8.6701 21.5271 8.72701C21.5507 8.78391 21.5629 8.84491 21.5629 8.90651C21.5629 8.96811 21.5507 9.02911 21.5271 9.08602C21.5035 9.14292 21.469 9.19462 21.4254 9.23815L12.9879 17.6757C12.9444 17.7192 12.8927 17.7538 12.8358 17.7774C12.7788 17.801 12.7178 17.8131 12.6562 17.8131C12.5946 17.8131 12.5336 17.801 12.4767 17.7774C12.4198 17.7538 12.3681 17.7192 12.3246 17.6757Z" fill="white"/>
</svg>
