<svg width="16" height="16" viewBox="0 0 16 16" fill="none" xmlns="http://www.w3.org/2000/svg">
<path d="M8 10.6328L1.89462 4.16609C1.84542 4.11285 1.78701 4.07076 1.72276 4.04225C1.65852 4.01375 1.58971 3.99939 1.52034 4.00002C1.45096 4.00065 1.38239 4.01624 1.31859 4.04591C1.25479 4.07557 1.19703 4.11871 1.14864 4.17284C1.10026 4.22696 1.06222 4.29099 1.03672 4.36122C1.01122 4.43146 0.998774 4.5065 1.0001 4.582C1.00142 4.6575 1.01648 4.73197 1.04442 4.8011C1.07235 4.87022 1.1126 4.93263 1.16284 4.98471L7.63411 11.8382C7.73206 11.942 7.86334 12 8 12C8.13666 12 8.26793 11.942 8.36589 11.8382L14.8372 4.98471C14.8874 4.93263 14.9276 4.87022 14.9556 4.8011C14.9835 4.73197 14.9986 4.6575 14.9999 4.582C15.0012 4.5065 14.9888 4.43146 14.9633 4.36122C14.9378 4.29099 14.8997 4.22696 14.8514 4.17284C14.803 4.11871 14.7452 4.07557 14.6814 4.04591C14.6176 4.01624 14.549 4.00065 14.4797 4.00002C14.4103 3.99939 14.3415 4.01375 14.2772 4.04225C14.213 4.07076 14.1546 4.11285 14.1054 4.16609L8 10.6328Z" fill="white"/>
</svg>
