<svg width="33" height="35" viewBox="0 0 33 35" fill="none" xmlns="http://www.w3.org/2000/svg">
<path d="M16 31C15.5924 31 15.1994 30.9202 14.821 30.7607C14.4426 30.6024 14.1111 30.3568 13.8265 30.0241L0.65541 14.6493C0.437532 14.402 0.273538 14.1314 0.163427 13.8374C0.0533165 13.5435 -0.00115289 13.2302 1.84956e-05 12.8975C1.84956e-05 12.6844 0.027546 12.4759 0.0826012 12.2719C0.138828 12.0668 0.217311 11.8612 0.31805 11.655L3.4439 5.51937C3.69809 5.05792 4.05126 4.68933 4.50342 4.4136C4.95557 4.13787 5.45049 4 5.98815 4H26.0119C26.5507 4 27.0456 4.13787 27.4966 4.4136C27.9476 4.68933 28.3008 5.05735 28.5561 5.51766L31.682 11.6532C31.7839 11.8606 31.8624 12.0668 31.9174 12.2719C31.9725 12.477 32 12.6855 32 12.8975C32 13.2302 31.9449 13.5435 31.8348 13.8374C31.7247 14.1314 31.5607 14.402 31.3428 14.6493L18.1735 30.0241C17.8889 30.3568 17.5574 30.6029 17.179 30.7624C16.8007 30.9208 16.4077 31 16 31ZM10.4072 12.5454H21.5928L18.0786 5.70908H13.9214L10.4072 12.5454ZM15.1215 28.8842V14.2545H2.63213L15.1215 28.8842ZM16.8785 28.8842L29.3679 14.2545H16.8785V28.8842ZM23.5414 12.5454H30.1586L26.9466 6.30042C26.8564 6.12495 26.7211 5.98253 26.5407 5.87315C26.3604 5.76377 26.1688 5.70908 25.9662 5.70908H20.0272L23.5414 12.5454ZM1.84144 12.5454H8.45861L11.9728 5.70908H6.03208C5.82943 5.70908 5.63791 5.76377 5.45752 5.87315C5.27712 5.98253 5.14241 6.12495 5.05339 6.30042L1.84144 12.5454Z" fill="#9CA1CD"/>
</svg>
