<svg width="27" height="27" viewBox="0 0 27 27" fill="none" xmlns="http://www.w3.org/2000/svg">
<path d="M21.3158 21.3158C22.0696 21.3158 22.7925 21.6152 23.3255 22.1482C23.8585 22.6812 24.1579 23.4041 24.1579 24.1579C24.1579 24.9117 23.8585 25.6346 23.3255 26.1676C22.7925 26.7006 22.0696 27 21.3158 27C20.562 27 19.8391 26.7006 19.3061 26.1676C18.7731 25.6346 18.4737 24.9117 18.4737 24.1579C18.4737 23.4041 18.7731 22.6812 19.3061 22.1482C19.8391 21.6152 20.562 21.3158 21.3158 21.3158ZM21.3158 22.7368C20.9389 22.7368 20.5775 22.8866 20.311 23.1531C20.0445 23.4196 19.8947 23.781 19.8947 24.1579C19.8947 24.5348 20.0445 24.8962 20.311 25.1627C20.5775 25.4292 20.9389 25.5789 21.3158 25.5789C21.6927 25.5789 22.0541 25.4292 22.3206 25.1627C22.5871 24.8962 22.7368 24.5348 22.7368 24.1579C22.7368 23.781 22.5871 23.4196 22.3206 23.1531C22.0541 22.8866 21.6927 22.7368 21.3158 22.7368ZM8.52632 21.3158C9.28009 21.3158 10.003 21.6152 10.536 22.1482C11.069 22.6812 11.3684 23.4041 11.3684 24.1579C11.3684 24.9117 11.069 25.6346 10.536 26.1676C10.003 26.7006 9.28009 27 8.52632 27C7.77254 27 7.04964 26.7006 6.51664 26.1676C5.98365 25.6346 5.68421 24.9117 5.68421 24.1579C5.68421 23.4041 5.98365 22.6812 6.51664 22.1482C7.04964 21.6152 7.77254 21.3158 8.52632 21.3158ZM8.52632 22.7368C8.14943 22.7368 7.78798 22.8866 7.52148 23.1531C7.25498 23.4196 7.10526 23.781 7.10526 24.1579C7.10526 24.5348 7.25498 24.8962 7.52148 25.1627C7.78798 25.4292 8.14943 25.5789 8.52632 25.5789C8.9032 25.5789 9.26465 25.4292 9.53115 25.1627C9.79765 24.8962 9.94737 24.5348 9.94737 24.1579C9.94737 23.781 9.79765 23.4196 9.53115 23.1531C9.26465 22.8866 8.9032 22.7368 8.52632 22.7368ZM24.1579 4.26316H4.64684L8.27053 12.7895H19.8947C20.3637 12.7895 20.7758 12.5621 21.0316 12.2211L25.2947 6.53684C25.4795 6.29526 25.5789 5.99684 25.5789 5.68421C25.5789 5.30732 25.4292 4.94587 25.1627 4.67937C24.8962 4.41288 24.5348 4.26316 24.1579 4.26316ZM19.8947 14.2105H8.34158L7.24737 16.4274L7.10526 17.0526C7.10526 17.4295 7.25498 17.791 7.52148 18.0575C7.78798 18.324 8.14943 18.4737 8.52632 18.4737H24.1579V19.8947H8.52632C7.77254 19.8947 7.04964 19.5953 6.51664 19.0623C5.98365 18.5293 5.68421 17.8064 5.68421 17.0526C5.68379 16.5705 5.80604 16.0961 6.03947 15.6742L7.06263 13.5853L1.90421 1.42105H0V0H2.84211L4.05 2.84211H24.1579C24.9117 2.84211 25.6346 3.14154 26.1676 3.67454C26.7006 4.20754 27 4.93044 27 5.68421C27 6.39474 26.7584 6.99158 26.3605 7.47474L22.2253 13.0026C21.7137 13.7274 20.8611 14.2105 19.8947 14.2105Z" fill="white"/>
</svg>
