<svg width="32" height="27" viewBox="0 0 32 27" fill="none" xmlns="http://www.w3.org/2000/svg">
<path d="M16 27C15.5924 27 15.1994 26.9202 14.821 26.7607C14.4426 26.6024 14.1111 26.3568 13.8265 26.0241L0.65541 10.6493C0.437532 10.402 0.273538 10.1314 0.163427 9.83745C0.0533165 9.54349 -0.00115289 9.23016 1.84956e-05 8.89746C1.84956e-05 8.68439 0.027546 8.47588 0.0826012 8.27193C0.138828 8.06684 0.217311 7.86119 0.31805 7.65496L3.4439 1.51937C3.69809 1.05792 4.05126 0.689328 4.50342 0.413597C4.95558 0.137866 5.45049 0 5.98815 0H26.0119C26.5507 0 27.0456 0.137866 27.4966 0.413597C27.9476 0.689328 28.3008 1.05735 28.5561 1.51766L31.682 7.65325C31.7839 7.86062 31.8624 8.06684 31.9174 8.27193C31.9725 8.47702 32 8.68553 32 8.89746C32 9.23016 31.9449 9.54349 31.8348 9.83745C31.7247 10.1314 31.5607 10.402 31.3428 10.6493L18.1735 26.0241C17.8889 26.3568 17.5574 26.6029 17.179 26.7624C16.8007 26.9208 16.4077 27 16 27ZM10.4072 8.54539H21.5928L18.0786 1.70908H13.9214L10.4072 8.54539ZM15.1215 24.8842V10.2545H2.63213L15.1215 24.8842ZM16.8785 24.8842L29.3679 10.2545H16.8785V24.8842ZM23.5414 8.54539H30.1586L26.9466 2.30042C26.8564 2.12495 26.7211 1.98253 26.5407 1.87315C26.3604 1.76377 26.1688 1.70908 25.9662 1.70908H20.0272L23.5414 8.54539ZM1.84144 8.54539H8.45861L11.9728 1.70908H6.03208C5.82943 1.70908 5.63791 1.76377 5.45752 1.87315C5.27712 1.98253 5.14241 2.12495 5.05339 2.30042L1.84144 8.54539Z" fill="white"/>
</svg>
