<svg width="109" height="27" viewBox="0 0 109 27" fill="none" xmlns="http://www.w3.org/2000/svg">
<path fill-rule="evenodd" clip-rule="evenodd" d="M107.318 13.3152C104.442 13.3152 101.972 14.9466 99.9429 16.545L101.831 13.4425H99.2429L98.6242 14.3997C98.1521 15.1352 97.4792 15.7953 96.8606 16.4271C95.2326 18.0821 93.4472 19.605 91.5044 20.9724C89.209 22.5708 84.5854 25.4092 81.4217 25.4092C80.103 25.4092 78.9417 24.4757 78.9417 23.3158C78.9417 22.4859 79.3216 21.7315 79.696 20.9913C80.9007 20.9865 82.062 20.9252 83.2342 20.6471C85.5514 20.1001 88.0477 19.1571 89.7136 17.6059C90.4679 16.9033 91.2494 15.9368 91.2494 14.923C91.2494 13.5745 89.6865 12.9569 88.3244 12.9569C84.0916 12.9569 79.9294 17.0684 77.3788 19.6475L72.7662 23.1366C71.6537 23.9759 69.9769 25.0792 68.4628 25.0792C67.9527 25.0792 67.5728 24.6878 67.5728 24.2588C67.5728 23.8627 67.7194 23.4666 67.9473 23.1224L74.2965 13.4519H71.7297L70.5521 15.1258C70.1234 15.734 69.6947 16.3422 69.2117 16.9269C68.3054 18.0161 67.2418 19.0062 66.1402 19.954C64.6153 21.2647 63.0253 22.5755 61.2888 23.6647C60.3499 24.2588 59.2972 24.9094 58.087 24.9094C57.5498 24.9094 56.7792 24.6595 56.7792 24.1032C56.7792 23.6694 57.0343 23.2356 57.2785 22.8631L63.7036 13.1879H67.5294L67.7411 12.7541H63.8881L67.2038 7.73263H64.6099L62.6943 10.5758C61.2833 12.6551 59.1452 14.4421 56.7846 15.7104C56.4048 15.9132 55.9272 16.1961 55.4605 16.1961C55.3357 16.1961 55.238 16.1536 55.1349 16.0924C55.6559 15.7057 56.0466 15.1682 56.0466 14.5458C56.0466 13.6688 55.1349 13.3011 54.2287 13.3011C52.5898 13.3011 51.0215 13.8999 49.6431 14.6166L50.3974 13.4378H47.6244L45.9801 16.0641C44.211 18.9025 41.5683 21.1563 38.6596 23.1224C37.5362 23.8863 35.854 25.0603 34.3345 25.0603C33.7484 25.0603 33.1081 24.735 33.1081 24.1739C33.1081 23.6882 33.3848 23.2026 33.6562 22.7877L39.772 13.4472H37.1455L35.7509 15.5596C35.6912 13.7113 34.6764 12.7966 32.4786 12.7966C28.3055 12.7966 24.4254 15.6397 22.0323 18.3697C21.2617 19.2467 20.6919 20.185 20.1763 21.1893C16.9746 23.0517 12.4216 25.678 8.47645 25.678C4.84059 25.678 2.88156 23.6128 2.88156 20.515C2.88156 17.9171 3.86379 15.3049 5.14991 12.9946C7.84153 8.14283 12.2968 3.84745 17.8917 1.45694C19.4329 0.801553 21.1966 0.339482 22.9277 0.339482C25.2503 0.339482 28.6799 1.44751 28.6799 3.83331C28.6799 4.32367 28.5551 4.78103 28.3977 5.2431L28.7885 5.4647C29.6676 3.37595 30.6118 2.02746 32.7554 0.768548L32.3646 0.414922C31.453 0.999584 30.4436 1.59368 29.2606 1.59368C28.9296 1.59368 28.5605 1.5701 28.2566 1.41922L26.6666 0.669533C25.5704 0.141451 24.2409 0 23.0036 0C22.0377 0 21.0717 0.108446 20.1275 0.306477C16.6653 1.0373 13.3713 2.54139 10.6254 4.50756C7.07637 7.05367 4.05915 10.2646 2.00244 13.8433C0.94424 15.6869 0 17.719 0 19.8125C0 23.6694 3.15289 26.2485 7.54849 26.2485C11.9441 26.2485 16.5947 23.759 20.0244 21.6514C19.8453 22.17 19.6771 22.7075 19.6662 23.2639C19.6662 24.9896 21.3268 26.1683 23.2533 26.1683C26.1999 26.1683 28.8699 24.3531 30.818 22.5849C30.5141 23.1649 30.2265 23.7684 30.2265 24.4191C30.2265 25.4611 31.2467 25.9373 32.3484 25.9373C36.4401 25.9373 40.8085 22.2549 43.5056 19.7748L39.5007 25.8572H42.2303L47.8578 17.3513C48.5035 16.3705 49.2307 15.4134 50.3595 14.8193C51.4828 14.2299 52.91 13.6594 54.2504 13.6594C54.7116 13.6594 55.3954 13.947 55.3954 14.4232C55.3954 14.5694 55.3411 14.7109 55.2869 14.8382C55.0915 14.7439 54.907 14.6826 54.6791 14.6826C53.8922 14.6826 53.1813 15.2389 53.1813 15.9368C53.1813 16.6346 53.8325 17.0354 54.5705 17.0354C55.7861 17.0354 56.8606 16.314 57.7723 15.6963C58.8305 14.9796 59.8344 14.2205 60.8112 13.4284L55.3954 21.6938C54.8961 22.4529 54.2124 23.3252 54.2124 24.2352C54.2124 25.3244 55.4008 25.8949 56.5133 25.8949C58.2715 25.8949 59.8995 25.098 61.2942 24.2399C63.8284 22.6839 66.0425 20.7649 68.1318 18.7752L65.9937 22.0333C65.5433 22.717 64.9192 23.4431 64.9192 24.2635C64.9192 25.4752 65.9828 25.876 67.2744 25.876C70.7094 25.876 74.1771 22.8065 76.554 20.897C76.3803 21.5146 76.2012 22.1323 76.2012 22.7688C76.2012 24.9141 78.3122 26.0316 80.5968 26.0316C82.8815 26.0316 85.2366 25.0886 87.2337 24.0513C89.1764 23.0423 91.016 21.8777 92.7471 20.6093C94.2937 19.4777 95.6667 18.2141 96.9745 16.875L90.9781 25.8619H93.6371L97.3327 20.3547C98.8033 18.1528 100.757 16.1489 103.297 14.8334C104.42 14.2535 105.771 13.683 107.112 13.683C107.692 13.683 108.05 13.8857 108.295 14.3195C108.159 14.3054 108.007 14.2912 107.86 14.2912C107.117 14.2912 106.26 14.8004 106.26 15.4983C106.26 15.9368 106.764 16.3517 107.263 16.3517C108.213 16.3517 109 15.4417 109 14.6637C109 13.8244 108.262 13.3152 107.318 13.3152ZM87.8686 13.4237C88.5686 13.4237 89.4043 13.7066 89.4043 14.4044C89.4043 15.7434 87.9283 17.3324 86.8918 18.2C85.2475 19.5767 82.8543 20.5905 80.5371 20.5905C80.2984 20.5905 80.065 20.5763 79.8208 20.5716C81.3294 18.3933 84.5963 13.4284 87.8686 13.4237ZM24.1704 25.4092C22.7974 25.4092 22.0485 24.3955 22.0485 23.2969C22.0485 22.3115 22.461 21.4533 22.9548 20.5716C24.2626 18.2471 26.3139 16.1018 28.7233 14.5694C29.9172 13.8009 31.1979 13.1455 32.7174 13.1455C34.1174 13.1455 35.2299 13.9329 35.2299 15.1635C35.2299 16.8609 33.667 18.8789 32.522 20.2227C30.7095 22.3256 27.3612 25.4092 24.1704 25.4092Z" fill="white"/>
<path fill-rule="evenodd" clip-rule="evenodd" d="M75.295 10.821C74.7578 10.821 74.3291 10.5711 74.3291 10.0713C74.3291 9.33103 75.1865 8.32202 76.0765 8.32202C76.6354 8.32202 76.9013 8.76052 76.9013 9.20844C76.9013 10.0147 76.2827 10.821 75.295 10.821Z" fill="white"/>
</svg>
