<svg width="268" height="27" viewBox="0 0 268 27" fill="none" xmlns="http://www.w3.org/2000/svg">
<path d="M83.6119 13.3842V17.4229C83.6119 17.5751 79.2796 19.2806 75.9065 19.2806C72.9344 19.2996 70.4183 18.45 68.3504 16.7445C65.8658 14.8298 64.6314 12.4902 64.6471 9.72589C64.6471 4.65372 69.4197 0.152165 75.82 0H76.1502C78.6112 0 80.7499 0.672063 82.5583 2.02887C82.8414 2.18103 83.0301 2.39026 83.1323 2.65655V4.50789H82.9121C82.4561 2.99258 81.371 1.81964 79.657 1.1032C78.682 0.729125 77.6677 0.513558 76.5984 0.469176C69.978 0.126804 68.3504 6.37826 68.3504 9.71955C68.3504 13.5617 71.5977 18.7163 76.4804 18.7163C80.4118 18.7163 82.2359 16.2627 82.9829 14.6015C83.1244 14.1894 83.2738 13.7836 83.3996 13.3842H83.6119ZM91.9935 18.5008V0.424794H87.331V0.57696C87.5275 0.57696 89.218 0.843249 89.218 1.73088V18.5008C89.218 18.8812 88.9821 19.0777 88.5104 19.0841V19.2489H92.7012V19.0841C92.2451 19.0904 91.9935 18.8685 91.9935 18.5008ZM253.273 18.5071V0.424794H248.626V0.57696C248.815 0.57696 250.529 0.843249 250.529 1.73088V18.5008C250.529 18.8938 250.285 19.0841 249.798 19.0841V19.2489H253.965V19.0841C253.509 19.0967 253.281 18.8748 253.273 18.5071ZM18.6189 0.621341V0.811548C19.5467 0.811548 19.9791 1.29974 19.7118 1.845L13.1386 15.8442L6.6597 2.2064C6.17222 1.16026 7.02139 0.811548 8.06713 0.811548V0.621341H0V0.811548C0.739093 0.786187 1.42315 0.938352 2.0443 1.2617C2.66545 1.59139 3.11363 2.03521 3.38882 2.59315L11.2908 19.2743H12.0771L20.1757 2.00985C20.5845 1.24268 21.3 0.843249 22.3379 0.811548V0.621341H18.6189ZM262.889 19.2489C266.129 19.2489 268 17.4546 268 15.5652C268 13.9992 266.553 13.0291 264.564 12.5346L262.205 11.9006C260.334 11.4314 259.351 10.9622 259.351 9.8527C259.351 8.58465 260.538 7.80481 262.59 7.80481C264.776 7.80481 265.586 9.18063 266.199 10.7213H266.38V8.55929C265.287 7.82383 264.029 7.45609 262.614 7.44975C259.956 7.44975 257.991 8.92068 257.991 10.8545C257.991 13.1496 259.846 13.6568 261.175 14.0309L263.676 14.7156C264.761 15.0263 265.767 15.4194 265.767 16.7445C265.791 17.0298 265.751 17.3151 265.625 17.5878C265.5 17.8604 265.319 18.1013 265.059 18.3042C264.808 18.5134 264.517 18.6656 264.179 18.767C263.841 18.8748 263.487 18.9129 263.133 18.8938C259.886 18.8938 258.628 16.8903 258.054 15.2736H257.896V17.7146C259.359 18.6783 260.994 19.1855 262.889 19.2489ZM197.094 17.9872C197.503 18.6846 198.187 19.0587 199.146 19.1094V19.2743H192.612V19.1094C192.888 19.1094 194.036 18.8812 193.642 18.0126L190.938 12.2556H183.154L180.347 18.2471C180.009 18.9636 181.062 19.1031 181.298 19.1031V19.2679H178.153V19.1031C178.908 19.1284 179.458 18.8748 179.804 18.3359L188.076 0.545259H188.862L197.094 17.9872ZM187.022 3.99434L183.578 11.33H190.474L187.022 3.99434ZM209.934 7.49414C207.213 7.49414 206.058 9.3962 205.704 10.398L205.657 7.79847H202.244V7.92527C202.622 7.95063 202.858 8.12182 202.936 8.42615V18.6339C202.873 18.9509 202.637 19.0967 202.244 19.0777V19.2426H206.38V19.0777C206.011 19.1094 205.782 18.9826 205.704 18.6973V12.5917C205.704 9.71955 207.717 8.01403 209.053 8.01403C209.785 8.01403 210.178 8.42615 210.178 9.11723V10.3282C210.178 10.7784 210.547 11.07 211.499 11.07C212.285 11.07 212.788 10.7847 212.788 10.3282C212.788 8.31202 211.931 7.49414 209.934 7.49414ZM36.1684 18.6085C35.4529 19.0397 34.643 19.2489 33.7546 19.2426C31.6945 19.2426 30.9161 18.5008 30.5702 17.2327V17.1566V17.3025C29.2885 18.5515 27.6374 19.1855 25.6245 19.2045C23.6038 19.2045 22.1178 18.2979 22.1178 16.567C22.1178 13.3398 27.5352 12.6551 30.578 12.7565H30.6645V10.4233C30.6645 8.75584 30.1141 7.75408 27.9991 7.75408C26.5759 7.75408 25.0348 8.09012 25.0348 9.34548V10.5311C25.0191 10.772 24.9012 10.9813 24.6731 11.1461C24.4451 11.3173 24.1778 11.3934 23.879 11.3807H23.7847C22.3615 11.3807 22.3851 10.9052 22.3851 10.2648C22.3851 8.73682 24.7046 7.39903 27.9833 7.39903C31.9147 7.39903 33.3378 9.13625 33.3378 10.9622V17.2454C33.3378 18.2218 33.7703 18.5134 34.4543 18.6022C35.0204 18.6973 35.5551 18.6339 36.0662 18.4056L36.1684 18.6085ZM30.4286 16.6114C30.5387 16.3261 30.6095 16.0344 30.6331 15.7364V13.1813C28.5337 13.1813 24.8461 13.5173 24.8461 15.7174C24.7754 16.3451 25.0034 16.8967 25.5066 17.3785C26.0177 17.8604 26.6545 18.1267 27.4408 18.1774H27.8025C28.3922 18.1457 28.9269 17.9809 29.3986 17.6892C29.8704 17.3976 30.2321 17.0615 30.4286 16.6114ZM52.5779 18.4754V10.9622C52.5779 8.55929 50.6122 7.49414 47.7816 7.49414H47.0111C46.8695 7.49414 46.7359 7.51316 46.6101 7.54486H46.4371C46.3034 7.55754 46.1855 7.5829 46.0675 7.62094C46.0125 7.62094 45.9653 7.62094 45.9181 7.62094C45.7766 7.65264 45.6351 7.69702 45.5093 7.75408H45.4228C44.8331 7.95697 44.3142 8.23594 43.8503 8.59099C43.7402 8.6544 43.6458 8.73048 43.5672 8.82558C43.2999 9.03481 43.0797 9.30744 42.8989 9.56739C42.8517 9.62445 42.7652 9.72589 42.718 9.78929V7.79847H38.8339V7.92527C39.2506 7.91893 39.4707 8.08378 39.5022 8.42615V18.5705C39.4471 18.8875 39.227 19.0587 38.8339 19.0841V19.2489H42.9225V19.0841C42.4979 19.027 42.2777 18.8304 42.262 18.4881V12.1035C42.2777 12.0337 42.2934 11.9703 42.3013 11.9069C42.3013 11.7991 42.3485 11.6723 42.3642 11.5392C42.3799 11.4187 42.3642 11.4504 42.4192 11.3807C42.6237 10.4867 43.1583 9.74491 44.0075 9.14259C44.8567 8.54661 45.8395 8.21692 46.9717 8.17254C48.9767 8.17254 49.59 8.66708 49.7237 10.3219C49.7237 10.6135 49.7787 10.9559 49.7787 11.2539V18.4817C49.7473 18.8431 49.5035 19.0397 49.0554 19.0714V19.2362H53.199V19.0714C52.743 19.0587 52.5543 18.8368 52.5779 18.4754ZM137.039 0.0507217C135.065 0.177526 133.493 0.88763 132.321 2.16835C131.535 3.03062 130.882 4.07042 130.882 6.47336V7.10738C130.741 7.6463 130.041 8.43883 129.31 8.43883C129.876 8.45151 130.395 8.33738 130.882 8.1028V18.71C130.796 18.9889 130.576 19.1348 130.222 19.1601V19.306H134.279V19.1601C133.902 19.1601 133.697 19.0143 133.65 18.7227V8.54027H136.795V7.84919H133.65V4.24794C133.65 1.60407 135.12 0.443815 136.89 0.443815C137.676 0.443815 138.667 0.716444 138.667 1.64212V2.96088C138.667 3.39836 139.036 3.67733 139.98 3.67733C140.923 3.67733 141.269 3.39836 141.269 2.96088C141.269 1.39485 140.554 0.0507217 137.039 0.0507217ZM169.653 11.406C168.301 11.406 166.618 12.7248 165.62 13.8153C165.148 14.3162 164.189 15.7174 163.583 16.4592C165.258 17.9872 167.043 19.0967 168.812 18.0506L168.93 18.2154C168.458 18.5705 167.931 18.8431 167.334 19.027C166.736 19.2172 166.115 19.306 165.47 19.2996C164.834 19.2869 164.212 19.1855 163.623 18.9826C163.033 18.7797 162.514 18.4944 162.066 18.1267C162.066 18.1267 161.948 18.0252 161.893 17.9809C160.556 18.9763 158.984 19.4581 157.175 19.4264C152.065 19.6039 150.72 16.9854 150.72 15.3053C150.72 13.0101 153.079 11.964 154.471 11.5709L154.958 11.4758L155.288 11.4124L154.856 10.9876C153.999 10.2775 153.551 9.43424 153.519 8.45151C153.503 8.00135 153.606 7.56388 153.81 7.14542C154.014 6.72697 154.305 6.3529 154.699 6.02955C155.084 5.70619 155.532 5.45259 156.043 5.27506C156.562 5.09753 157.097 5.00243 157.655 4.99609H157.93C160.556 4.99609 162.129 6.20073 162.129 8.04573C162.137 8.14718 162.137 8.24862 162.129 8.35007V8.51491C162.05 8.74316 161.948 9.00311 161.814 9.21867C161.783 9.27574 161.744 9.32646 161.704 9.38352C161.61 9.48496 161.508 9.56739 161.405 9.66249C160.556 10.3726 159.534 10.8291 158.347 11.0383L159.463 12.2049C160.902 13.7012 161.979 14.8361 163.395 16.1802C163.52 16.0407 163.631 15.9013 163.741 15.7618C164.661 14.3225 165.18 12.8009 165.313 11.1905H169.748V11.406H169.653ZM157.073 9.77027C157.419 10.1063 157.71 10.4043 158.017 10.715C159.416 10.2331 159.974 9.56739 160.163 7.99501C160.163 6.72697 159.22 5.26238 157.576 5.26238H157.34C155.949 5.43991 154.494 7.17078 157.073 9.77027ZM161.453 17.9175C161.539 17.854 161.633 17.797 161.736 17.7082L161.665 17.6258C158.268 14.2401 156.586 12.5473 155.752 11.7548C155.414 11.8942 155.1 12.0591 154.801 12.2493C154.353 12.56 154.022 12.9404 153.81 13.3905C153.653 13.8027 153.582 14.2211 153.59 14.6586C153.779 15.7935 154.36 16.7889 155.328 17.6385C156.004 18.2218 156.837 18.5832 157.82 18.71C158.803 18.8431 159.731 18.7163 160.611 18.3359C160.643 18.3232 160.674 18.3105 160.706 18.2979L160.934 18.1901C161.115 18.1013 161.287 18.0189 161.453 17.9175ZM109.559 16.7572C108.717 17.9048 107.027 19.2933 103.457 19.2933C100.116 19.2933 96.9077 16.9664 96.9077 13.4539C96.9077 10.8164 99.0149 8.30568 101.979 7.65898C102.451 7.54486 102.938 7.49414 103.442 7.50048H104.008C104.424 7.51316 104.841 7.56388 105.25 7.6463C105.942 7.74774 106.595 7.94429 107.2 8.24228C107.805 8.53393 108.332 8.908 108.773 9.35182C109.213 9.80197 109.535 10.2965 109.755 10.8418C109.968 11.387 110.062 11.945 110.031 12.5156V12.617H99.9899C99.9899 12.9848 100.061 13.6885 100.131 14.1704C100.532 16.5543 102.585 18.71 105.156 18.71C105.966 18.7036 106.713 18.5071 107.381 18.133C107.916 17.7463 108.332 17.2898 108.631 16.7699H109.457L109.559 16.7572ZM101.287 9.26306C100.839 10.1634 100.572 11.1017 100.501 12.0718H107.153C107.153 10.2775 106.272 7.91893 103.788 7.91893H103.41C102.404 8.05841 101.712 8.51491 101.287 9.26306ZM125.52 16.7952C124.671 17.9428 122.988 19.3313 119.419 19.3313C116.077 19.3313 112.869 17.0045 112.869 13.492C112.869 10.8545 114.968 8.34373 117.933 7.69702C118.404 7.5829 118.892 7.53218 119.395 7.53852H119.961C120.378 7.5512 120.787 7.60192 121.196 7.68434C121.888 7.78579 122.54 7.98867 123.146 8.28032C123.751 8.57831 124.27 8.94604 124.71 9.3962C125.151 9.84002 125.473 10.3409 125.693 10.8798C125.905 11.4251 126 11.983 125.968 12.5473V12.6487H116.046C116.046 13.0165 116.108 13.7202 116.187 14.2021C116.588 16.586 118.64 18.7417 121.219 18.7417C122.037 18.7353 122.776 18.5451 123.444 18.1647C123.979 17.7843 124.396 17.3278 124.694 16.8016L125.52 16.7952ZM117.351 9.26306C116.895 10.1634 116.635 11.0954 116.564 12.0718H123.224C123.224 10.2775 122.336 7.91893 119.843 7.91893H119.513C118.499 8.05841 117.775 8.50857 117.351 9.26306ZM245.819 16.7255C244.978 17.8604 243.311 19.2616 239.718 19.2616C236.376 19.2616 233.184 16.9411 233.184 13.4286C233.184 10.772 235.291 8.23594 238.24 7.60192C238.711 7.49414 239.191 7.44341 239.686 7.43707H240.237C240.661 7.44975 241.07 7.49414 241.487 7.57656C242.179 7.678 242.824 7.87455 243.429 8.17254C244.035 8.46419 244.561 8.83192 244.994 9.28208C245.434 9.72589 245.764 10.2204 245.977 10.7657C246.197 11.3046 246.291 11.8625 246.26 12.4332V12.5409H236.368C236.376 13.0608 236.423 13.5871 236.502 14.107C236.895 16.4972 238.963 18.6402 241.534 18.6402C242.352 18.6339 243.091 18.4437 243.751 18.0633C244.278 17.6765 244.695 17.2264 245.002 16.7128L245.819 16.7255ZM237.658 9.18697C237.21 10.0873 236.95 11.0256 236.872 12.002H243.539C243.539 10.2077 242.643 7.84285 240.158 7.84285H239.812C238.798 7.98233 238.075 8.43249 237.658 9.18697ZM228.018 9.35182C229.095 10.5248 229.622 11.8435 229.591 13.3081C229.591 16.7699 226.666 19.2616 222.962 19.2362C222.829 19.2426 222.703 19.2426 222.569 19.2362C222.066 19.1982 221.571 19.1094 221.099 18.9699C220.415 18.7544 219.912 18.3866 219.574 17.8731V26.2485H214.903V26.09C215.1 26.09 216.79 25.8174 216.79 24.9424V8.45785C216.775 8.17888 216.602 8.04573 216.256 8.05207L216.224 7.89357H219.558V9.25672C220.753 8.1979 222.247 7.69068 224.024 7.73506C225.659 7.77945 226.988 8.31836 228.018 9.35182ZM222.176 18.6402C225.227 18.6402 226.752 15.8125 226.752 13.2194C226.807 11.8625 226.336 10.6325 225.345 9.54203C224.606 8.77486 223.639 8.43883 222.451 8.52125C221.429 8.52125 219.566 9.42156 219.566 10.7213C219.55 10.8354 219.55 10.9559 219.566 11.07V16.4148C219.605 16.6431 219.676 16.8777 219.762 17.1059C219.983 17.7906 220.501 18.2598 221.335 18.5134C221.579 18.5959 221.901 18.6402 222.176 18.6402Z" fill="white"/>
</svg>
