<svg width="32" height="32" viewBox="0 0 32 32" fill="none" xmlns="http://www.w3.org/2000/svg">
<path fill-rule="evenodd" clip-rule="evenodd" d="M16 0C7.16344 0 0 7.16344 0 16C0 24.8366 7.16344 32 16 32C24.8366 32 32 24.8366 32 16C32 7.16344 24.8366 0 16 0ZM12.3489 7.38489C13.2591 7.34347 13.5499 7.33333 15.8675 7.33333H15.8648C18.183 7.33333 18.4728 7.34347 19.3831 7.38489C20.2915 7.42649 20.912 7.57031 21.456 7.78134C22.0178 7.99912 22.4924 8.29068 22.9671 8.76535C23.4418 9.23966 23.7333 9.71576 23.952 10.277C24.1618 10.8196 24.3058 11.4397 24.3484 12.3481C24.3893 13.2584 24.4 13.5492 24.4 15.8668C24.4 18.1843 24.3893 18.4744 24.3484 19.3847C24.3058 20.2928 24.1618 20.913 23.952 21.4558C23.7333 22.0169 23.4418 22.493 22.9671 22.9673C22.493 23.4419 22.0176 23.7342 21.4565 23.9522C20.9136 24.1632 20.2928 24.307 19.3843 24.3486C18.4741 24.39 18.1841 24.4002 15.8664 24.4002C13.549 24.4002 13.2584 24.39 12.3481 24.3486C11.4399 24.307 10.8196 24.1632 10.2767 23.9522C9.71576 23.7342 9.23966 23.4419 8.76553 22.9673C8.29103 22.493 7.99947 22.0169 7.78134 21.4556C7.57049 20.913 7.42667 20.2929 7.38489 19.3845C7.34364 18.4742 7.33333 18.1843 7.33333 15.8668C7.33333 13.5492 7.344 13.2582 7.38471 12.348C7.4256 11.4399 7.5696 10.8196 7.78116 10.2768C7.99983 9.71576 8.29139 9.23966 8.76606 8.76535C9.24038 8.29085 9.71647 7.9993 10.2777 7.78134C10.8203 7.57031 11.4404 7.42649 12.3489 7.38489Z" fill="white"/>
<path fill-rule="evenodd" clip-rule="evenodd" d="M15.2355 9.00457C15.3841 9.00434 15.544 9.00441 15.7166 9.00449L16.001 9.00457C18.2794 9.00457 18.5495 9.01275 19.4492 9.05364C20.2812 9.09168 20.7328 9.23071 21.0336 9.34751C21.4318 9.50218 21.7157 9.68707 22.0142 9.98574C22.3129 10.2844 22.4978 10.5688 22.6528 10.9671C22.7696 11.2675 22.9088 11.7191 22.9467 12.5511C22.9876 13.4506 22.9964 13.7209 22.9964 15.9982C22.9964 18.2756 22.9876 18.5458 22.9467 19.4454C22.9086 20.2774 22.7696 20.7289 22.6528 21.0294C22.4981 21.4276 22.3129 21.7112 22.0142 22.0097C21.7155 22.3083 21.432 22.4932 21.0336 22.6479C20.7331 22.7652 20.2812 22.9039 19.4492 22.9419C18.5496 22.9828 18.2794 22.9917 16.001 22.9917C13.7224 22.9917 13.4524 22.9828 12.5528 22.9419C11.7208 22.9035 11.2692 22.7645 10.9682 22.6477C10.57 22.493 10.2856 22.3082 9.98689 22.0095C9.68822 21.7108 9.50333 21.4271 9.34831 21.0287C9.23151 20.7282 9.09231 20.2767 9.05444 19.4447C9.01355 18.5451 9.00537 18.2749 9.00537 15.9961C9.00537 13.7173 9.01355 13.4485 9.05444 12.5489C9.09248 11.7169 9.23151 11.2654 9.34831 10.9646C9.50298 10.5663 9.68822 10.2819 9.98689 9.98325C10.2856 9.68458 10.57 9.49969 10.9682 9.34467C11.269 9.22733 11.7208 9.08866 12.5528 9.05044C13.34 9.01488 13.6451 9.00422 15.2355 9.00244V9.00457ZM20.5561 10.4215C19.9907 10.4215 19.5321 10.8796 19.5321 11.4451C19.5321 12.0105 19.9907 12.4691 20.5561 12.4691C21.1214 12.4691 21.5801 12.0105 21.5801 11.4451C21.5801 10.8798 21.1214 10.4215 20.5561 10.4215ZM11.6187 16.0002C11.6187 13.5801 13.5808 11.618 16.0008 11.6179C18.4209 11.6179 20.3826 13.5801 20.3826 16.0002C20.3826 18.4203 18.4211 20.3816 16.001 20.3816C13.5809 20.3816 11.6187 18.4203 11.6187 16.0002Z" fill="white"/>
<path d="M16.0007 13.1558C17.5716 13.1558 18.8452 14.4293 18.8452 16.0003C18.8452 17.5712 17.5716 18.8448 16.0007 18.8448C14.4297 18.8448 13.1562 17.5712 13.1562 16.0003C13.1562 14.4293 14.4297 13.1558 16.0007 13.1558Z" fill="white"/>
</svg>
