<svg width="32" height="32" viewBox="0 0 32 32" fill="none" xmlns="http://www.w3.org/2000/svg">
<mask id="mask0_111_169" style="mask-type:luminance" maskUnits="userSpaceOnUse" x="0" y="0" width="32" height="32">
<path d="M32 16C32 7.16344 24.8366 0 16 0C7.16344 0 0 7.16344 0 16C0 24.8366 7.16344 32 16 32C24.8366 32 32 24.8366 32 16Z" fill="white"/>
</mask>
<g mask="url(#mask0_111_169)">
<path fill-rule="evenodd" clip-rule="evenodd" d="M20.8449 -0.0668945H11.0213C2.0559 -0.0668945 -0.0668945 2.0559 -0.0668945 11.0214V20.8449C-0.0668945 29.8104 2.0559 31.9331 11.0213 31.9331H20.8449C29.8103 31.9331 31.9331 29.8104 31.9331 20.8449V11.0214C31.9331 2.0559 29.8103 -0.0668945 20.8449 -0.0668945ZM25.4292 10.0955C26.1293 10.0955 26.2874 10.4568 26.1293 10.9536C25.8826 12.0922 23.8339 15.1126 23.1994 16.0481C23.0788 16.2259 23.0093 16.3283 23.0129 16.3283C22.7645 16.7348 22.6741 16.9155 23.0129 17.3672C23.1353 17.5342 23.395 17.789 23.6918 18.0802C23.997 18.3797 24.3415 18.7177 24.6163 19.0383C25.6099 20.1674 26.3777 21.1159 26.581 21.7708C26.7616 22.4257 26.4455 22.7645 25.768 22.7645H23.4419C22.8255 22.7645 22.5078 22.4105 21.8306 21.656C21.5402 21.3325 21.1838 20.9354 20.7094 20.461C19.3319 19.1286 18.7221 18.948 18.3834 18.948C17.9091 18.948 17.7736 19.0609 17.7736 19.7384V21.8386C17.7736 22.4032 17.593 22.7419 16.1025 22.7419C13.641 22.7419 10.9084 21.2514 8.98888 18.4737C6.09826 14.4088 5.30786 11.3375 5.30786 10.7278C5.30786 10.389 5.42078 10.0729 6.09826 10.0729H8.44689C9.03404 10.0729 9.25987 10.3213 9.4857 10.9762C10.6374 14.2959 12.557 17.2091 13.3474 17.2091C13.641 17.2091 13.7765 17.0736 13.7765 16.3283V12.8957C13.7207 11.9201 13.3811 11.495 13.1292 11.1797C12.973 10.9842 12.8506 10.831 12.8506 10.6149C12.8506 10.3439 13.0764 10.0729 13.4377 10.0729H17.0961C17.593 10.0729 17.7736 10.3439 17.7736 10.931V15.5605C17.7736 16.0574 17.9769 16.238 18.135 16.238C18.4285 16.238 18.677 16.0574 19.2189 15.5154C20.8901 13.641 22.087 10.7504 22.087 10.7504C22.2451 10.4116 22.516 10.0955 23.1032 10.0955H25.4292Z" fill="white"/>
</g>
</svg>
