<svg width="122" height="43" viewBox="0 0 122 43" fill="none" xmlns="http://www.w3.org/2000/svg">
<path d="M21.0875 2.50237L26.1358 6.96193L21.0875 42.1368V2.50237Z" fill="#9CA1CD"/>
<path d="M20.9512 42.1804L42.175 12.1466L32.4981 8.27036L20.9512 42.1804Z" fill="#9CA1CD"/>
<path d="M26.7737 0L31.8765 5.83886L40.9756 5.51175L26.7737 0Z" fill="#9CA1CD"/>
<path d="M21.082 2.50237L16.0391 6.96193L21.082 42.1368V2.50237Z" fill="#454A65"/>
<path d="M21.2183 42.1804L0 12.1466L9.67146 8.27036L21.2183 42.1804Z" fill="#454A65"/>
<path d="M15.4013 0L10.2984 5.83886L1.19391 5.51175L15.4013 0Z" fill="#454A65"/>
<path d="M48.2374 28.7909C48.2374 28.671 48.2646 28.611 48.3246 28.611C49.017 28.611 49.524 28.5619 49.8402 28.4638C50.1564 28.3657 50.369 28.1694 50.478 27.8859C50.5871 27.597 50.6416 27.1554 50.6416 26.5611V12.7845C50.6416 12.1902 50.5925 11.7541 50.4944 11.476C50.3963 11.198 50.1945 11.0072 49.9002 10.8981C49.6003 10.7891 49.1478 10.7346 48.5317 10.7346C48.4718 10.7346 48.4445 10.6746 48.4445 10.5547C48.4445 10.4347 48.4718 10.3748 48.5317 10.3748H61.507C61.7033 10.3748 61.8068 10.462 61.8068 10.6419L61.8668 15.6412C61.8668 15.7012 61.8123 15.7339 61.7033 15.7448C61.5942 15.7557 61.5288 15.7284 61.5124 15.6685C61.1744 14.142 60.602 13.0189 59.7842 12.3047C58.9719 11.5905 57.8979 11.2362 56.5677 11.2362H55.6736C55.0793 11.2362 54.6432 11.367 54.3652 11.6232C54.0871 11.8795 53.9508 12.2774 53.9508 12.8117V26.4412C53.9508 27.0572 54.0326 27.5152 54.1907 27.8096C54.3488 28.1094 54.6487 28.3166 55.0848 28.4365C55.5209 28.5565 56.2079 28.6164 57.1401 28.6164C57.1783 28.6164 57.2001 28.6764 57.2001 28.7963C57.2001 28.9163 57.1783 28.9763 57.1401 28.9763C56.3278 28.9763 55.69 28.9654 55.2375 28.949L52.2008 28.9217L49.971 28.949C49.573 28.9708 49.0279 28.9763 48.3355 28.9763C48.2755 28.9763 48.2483 28.9163 48.2483 28.7963L48.2374 28.7909Z" fill="#454A65"/>
<path d="M68.4036 28.0331C66.9643 27.1717 65.8521 25.9996 65.0725 24.5221C64.2875 23.0447 63.895 21.431 63.895 19.6864C63.895 17.642 64.4129 15.892 65.4433 14.4363C66.4736 12.9807 67.7984 11.8849 69.4176 11.1489C71.0368 10.4129 72.6887 10.0477 74.3733 10.0477C76.2596 10.0477 77.9169 10.4893 79.3453 11.3724C80.7737 12.2556 81.8695 13.4223 82.6327 14.867C83.396 16.3172 83.7776 17.8546 83.7776 19.4792C83.7776 21.2838 83.3033 22.9411 82.3492 24.4513C81.3952 25.9614 80.1195 27.1499 78.5275 28.0222C76.9302 28.8945 75.1965 29.3306 73.332 29.3306C71.4675 29.3306 69.8429 28.8999 68.409 28.0385L68.4036 28.0331ZM77.3009 27.6188C78.1841 26.9754 78.871 26.0323 79.3671 24.7893C79.8632 23.5517 80.1086 22.0688 80.1086 20.3406C80.1086 18.5143 79.8305 16.8842 79.2744 15.4449C78.7184 14.0057 77.9169 12.8826 76.8647 12.0648C75.8125 11.2525 74.5804 10.8436 73.1739 10.8436C71.3693 10.8436 69.9791 11.5251 69.0087 12.8826C68.0383 14.2401 67.5531 16.1428 67.5531 18.5797C67.5531 20.5042 67.8475 22.2269 68.4308 23.7425C69.0142 25.2581 69.821 26.4466 70.8405 27.2971C71.86 28.153 73.0158 28.5783 74.3078 28.5783C75.42 28.5783 76.4177 28.2566 77.3009 27.6133V27.6188Z" fill="#454A65"/>
<path d="M102.521 28.7909C102.521 28.9108 102.499 28.9708 102.461 28.9708C101.747 28.9708 101.18 28.9599 100.765 28.9435L98.4756 28.9163L96.2458 28.9435C95.8696 28.9653 95.3517 28.9708 94.6975 28.9708C94.6375 28.9708 94.6102 28.9108 94.6102 28.7909C94.6102 28.671 94.6375 28.611 94.6975 28.611C95.3299 28.611 95.7933 28.5619 96.0822 28.4638C96.3712 28.3657 96.562 28.1748 96.6601 27.8968C96.7582 27.6188 96.8073 27.1717 96.8073 26.5557V19.4138C96.0713 19.5719 95.3844 19.9808 94.7411 20.635C94.0978 21.2892 93.3345 22.4014 92.4622 23.9661C91.4482 25.7324 90.7395 26.9427 90.336 27.597C89.9272 28.2512 89.6491 28.6437 89.4856 28.7745C89.3275 28.9054 89.1094 28.9653 88.8314 28.9653H84.9333C84.8952 28.9653 84.8734 28.9054 84.8734 28.7854C84.8734 28.6655 84.8952 28.6055 84.9333 28.6055C85.5494 28.5837 86.0455 28.3766 86.4217 27.9786C86.7978 27.5806 87.3157 26.8173 87.97 25.6888L89.3983 23.3664C90.1888 22.0361 90.9957 21.0821 91.808 20.4933C92.6203 19.9099 93.5853 19.5174 94.692 19.3157C92.7675 19.1358 91.301 18.6615 90.287 17.8873C89.2729 17.1132 88.7714 16.0991 88.7714 14.8507C88.7714 13.9566 89.044 13.1661 89.5891 12.4683C90.1343 11.7759 90.8812 11.2307 91.8353 10.8491C92.7894 10.462 93.8579 10.2712 95.0518 10.2712C95.488 10.2712 96.0059 10.2984 96.6001 10.3584C96.84 10.3802 97.1181 10.3966 97.4343 10.4184C97.7505 10.4402 98.0994 10.4456 98.4756 10.4456C99.0916 10.4456 99.8548 10.4238 100.765 10.3857L102.461 10.3584C102.499 10.3584 102.521 10.4184 102.521 10.5383C102.521 10.6583 102.499 10.7182 102.461 10.7182C101.725 10.7182 101.201 10.7728 100.885 10.8818C100.569 10.9908 100.362 11.1816 100.258 11.4488C100.16 11.7159 100.111 12.1575 100.111 12.7736V26.5502C100.111 27.1663 100.16 27.6133 100.258 27.8913C100.356 28.1694 100.564 28.3602 100.885 28.4583C101.201 28.5565 101.73 28.6055 102.461 28.6055C102.499 28.6055 102.521 28.6655 102.521 28.7854V28.7909ZM93.2637 17.5112C93.9778 18.3453 95.0191 18.7596 96.3875 18.7596H96.8019V12.839C96.8019 11.3888 96.1967 10.6692 94.9864 10.6692C93.1219 10.6692 92.1897 11.8195 92.1897 14.1201C92.1897 15.5485 92.5495 16.677 93.2637 17.5112Z" fill="#454A65"/>
<path d="M118.647 10.2657C119.601 10.4129 120.343 10.6092 120.877 10.8436C121.057 10.9036 121.171 10.9799 121.22 11.0671C121.269 11.1544 121.313 11.3125 121.357 11.5306L121.711 15.6685C121.711 15.7284 121.662 15.7666 121.564 15.7884C121.466 15.8102 121.406 15.7775 121.384 15.7012C120.708 14.1365 119.808 12.9262 118.674 12.0703C117.546 11.2198 116.232 10.7891 114.744 10.7891C112.781 10.7891 111.26 11.5142 110.191 12.9644C109.117 14.4145 108.583 16.3554 108.583 18.7978C108.583 20.6241 108.878 22.2924 109.461 23.7971C110.044 25.3072 110.867 26.5011 111.931 27.3843C112.994 28.2675 114.198 28.7091 115.545 28.7091C116.815 28.7091 117.949 28.2893 118.952 27.4443C119.956 26.5993 120.85 25.3181 121.646 23.5899C121.667 23.5081 121.727 23.4809 121.836 23.5027C121.945 23.5245 122 23.5626 122 23.6226L121.553 27.6678C121.515 27.9077 121.466 28.0604 121.417 28.1312C121.368 28.2021 121.253 28.273 121.073 28.3547C119.307 29.009 117.491 29.3361 115.627 29.3361C113.206 29.3361 111.184 28.8563 109.554 27.8913C107.929 26.9318 106.73 25.7106 105.966 24.2332C105.203 22.7558 104.821 21.2129 104.821 19.6046C104.821 17.7183 105.334 16.0555 106.353 14.6054C107.373 13.1552 108.736 12.0376 110.431 11.2416C112.127 10.4456 113.948 10.0531 115.894 10.0531C116.766 10.0531 117.682 10.1294 118.631 10.2766L118.647 10.2657Z" fill="#454A65"/>
</svg>
