<svg width="75" height="68" viewBox="0 0 75 68" fill="none" xmlns="http://www.w3.org/2000/svg">
<path fill-rule="evenodd" clip-rule="evenodd" d="M56.4172 6.8773L40.2627 40.2369L35.8059 31.68L44.0378 12.0758C44.6571 10.5592 46.8227 9.85591 50.4748 9.85591L51.775 6.8773H32.5879L31.35 9.85591C34.0735 9.85591 35.1874 10.56 34.7543 12.0758L30.6691 22.0401L22.6227 6.87652C21.1371 5.25155 21.8803 4.43984 24.7891 4.43984V0.920093H6.22046V4.43984C9.68627 4.43984 11.8527 5.25233 12.7813 6.87652L26.3986 32.2212L20.0231 47.1142C19.8992 49.1181 16.3095 50.0928 9.37703 50.0928L8.07679 53.0714H61.0585L68.4241 39.3698H64.5867C60.997 46.4639 56.8494 50.0928 52.2072 50.0928H27.8824L31.4721 41.6989L34.5672 47.1142H41.4997L61.0585 6.8773C61.9871 4.44062 64.4004 3.14079 68.1763 3.14079V0H52.2072V3.14079C57.0348 3.14079 58.3965 4.44062 56.4163 6.8773H56.4172Z" fill="white"/>
<path fill-rule="evenodd" clip-rule="evenodd" d="M33.4452 60.7121L35.3318 64.695L37.2184 60.7121H38.5659L35.4762 67.2439L35.3309 67.371L35.1856 67.2439L32.0959 60.7121H33.4443H33.4452ZM26.6651 60.7121C27.3914 60.7121 28.0794 61.0442 28.4581 61.5284L27.7327 62.1639H27.5046C27.3539 61.8824 27.0233 61.7109 26.6651 61.7109C26.2382 61.7109 25.838 62.0181 25.8149 62.4096C25.7979 62.7035 25.9521 62.8875 26.2302 63.045C26.5296 63.2142 26.6526 63.2844 27.0599 63.4801C27.5037 63.6938 28.6257 64.1117 28.6257 65.2127C28.6257 66.3137 27.5883 67.3079 26.2515 67.3079C26.0795 67.3079 25.7685 67.2907 25.5368 67.2439C24.8818 67.1051 24.4843 66.8884 24.0548 66.4455L24.9879 65.6112L25.3096 65.8466C25.4548 65.9465 25.773 66.1468 26.076 66.1827C26.6918 66.256 27.1053 65.8997 27.1855 65.5472C27.2497 65.2696 27.1686 64.8548 26.657 64.6404C26.657 64.6404 25.7347 64.192 25.3301 63.987C24.9183 63.7788 24.4799 63.2088 24.4799 62.5265C24.4799 62.0189 24.7463 61.5269 25.175 61.1838C25.5065 60.9179 25.961 60.7121 26.6677 60.7121H26.6651ZM68.5702 60.5857L73.4013 64.8127V60.8399L73.5466 60.7128H74.5001L74.6454 60.8399V67.2439H74.4173L69.6691 63.0895V67.1168L69.5238 67.2439H68.5702L68.425 67.1168V60.7121L68.5702 60.585V60.5857ZM54.3256 60.7121V61.6735L54.1803 61.8006H53.0815V67.2432H51.8374V61.8006H50.5933V60.8392L50.7386 60.7121H54.3256ZM58.8866 60.7121V61.6735L58.7414 61.8006H57.6425V67.2432H56.3985V61.8006H55.1544V60.8392L55.2996 60.7121H58.8866ZM1.24409 60.7121V66.1546H3.73227V67.2432H0V60.8392L0.145263 60.7121H1.24409ZM8.29423 60.7121C10.3555 60.7121 12.0265 62.1741 12.0265 63.9776C12.0265 65.7811 10.3555 67.2432 8.29423 67.2432C6.23293 67.2432 4.56196 65.7811 4.56196 63.9776C4.56196 62.1741 6.23293 60.7121 8.29423 60.7121ZM63.4486 60.7121C65.5099 60.7121 67.1809 62.1741 67.1809 63.9776C67.1809 65.7811 65.5099 67.2432 63.4486 67.2432C61.3873 67.2432 59.7163 65.7811 59.7163 63.9776C59.7163 62.1741 61.3873 60.7121 63.4486 60.7121ZM14.7838 60.7121L14.9291 60.8392V65.0661C14.9291 65.6673 15.4861 66.1546 16.1732 66.1546C16.8603 66.1546 17.4173 65.6673 17.4173 65.0661V60.8392L17.5625 60.7121H18.5161L18.6614 60.8392V65.0661C18.6614 66.2685 17.5465 67.2432 16.1723 67.2424C14.799 67.2424 13.6859 66.2677 13.685 65.0661V60.8392L13.8303 60.7121H14.7838ZM22.3936 60.7121V67.1168L22.2484 67.2439H21.1495V60.8399L21.2948 60.7128H22.3936V60.7121ZM40.9097 60.7121L41.055 60.8392V65.0661C41.055 65.6673 41.6129 66.1539 42.3 66.1539C42.9862 66.1539 43.5423 65.6665 43.5432 65.0661V60.8392L43.6884 60.7121H44.642L44.7872 60.8392V65.0661C44.7872 66.2685 43.6733 67.2432 42.2991 67.2432C40.9249 67.2432 39.8109 66.2685 39.8109 65.0661V60.8392L39.9561 60.7121H40.9097ZM48.5195 60.7121V67.1168L48.3743 67.2439H47.2754V60.8399L47.4207 60.7128H48.5195V60.7121ZM8.29334 61.8014C6.91914 61.8014 5.80516 62.776 5.80516 63.9792C5.80516 65.1815 6.91914 66.1562 8.29423 66.1562C9.66844 66.1562 10.7824 65.1815 10.7824 63.9792C10.7824 62.7768 9.66844 61.8021 8.29423 61.8021L8.29334 61.8014ZM63.4486 61.8014C62.0744 61.8014 60.9604 62.776 60.9604 63.9784C60.9604 65.1807 62.0744 66.1554 63.4486 66.1554C64.8228 66.1554 65.9368 65.1807 65.9368 63.9784C65.9368 62.776 64.8228 61.8014 63.4486 61.8014Z" fill="white"/>
</svg>
