<svg width="302" height="27" viewBox="0 0 302 27" fill="none" xmlns="http://www.w3.org/2000/svg">
<path fill-rule="evenodd" clip-rule="evenodd" d="M154.735 0.00603517C148.91 -0.0271259 144.193 1.30836 140.389 3.91603C136.544 6.52369 134.645 9.6951 134.645 13.6383C134.645 16.879 136.547 19.8394 139.636 22.1637C143.363 24.9824 148.513 26.2485 154.853 26.2485C157.508 26.2485 160.244 25.8596 162.303 25.3682C165.354 24.6628 169.396 23.0439 170.623 20.6473L170.545 17.09C170.467 14.624 170.664 14.5185 173.519 14.4823V13.6352H162.781V14.4823C163.889 14.4823 164.642 14.4462 165.317 14.8351C165.951 15.2571 165.792 17.1593 165.792 17.901L165.754 20.0504C164.842 21.5999 162.74 22.447 161.238 22.9746C159.851 23.469 157.315 23.9966 154.938 24.0327C150.974 24.0689 147.886 23.0801 145.309 21.6361C142.695 20.1197 140.158 16.9875 140.158 13.0745C140.158 9.1615 142.854 6.20413 146.024 4.26572C148.086 2.99957 151.571 1.90526 155.02 1.94143C157.993 1.97761 160.767 2.61069 162.787 3.63265C165.086 4.76013 167.544 7.05126 168.453 8.73946L169.365 8.42291L167.9 2.89104C166.08 1.90525 163.818 1.19983 161.679 0.741609C159.343 0.247207 156.962 0.0361757 154.745 0L154.735 0.00603517ZM15.4375 0.590877C11.3857 0.602935 7.35088 0.657191 0.0406885 0.630059L0 1.441C0.990063 1.441 1.34608 1.40482 1.94283 1.82687C2.49889 2.25194 2.57688 2.70715 2.57688 4.25969V20.8523C2.57688 22.2601 2.69555 23.7071 2.33953 24.093C1.82416 24.6206 1.46814 24.7261 0.200047 24.693V25.537H15.2578C19.3774 25.537 26.1553 25.4315 28.9288 23.4931C30.0003 22.9655 31.9397 21.3437 31.899 18.5973C31.899 15.2511 30.2749 14.2291 28.8102 13.4875C27.5014 12.8544 25.4433 12.36 23.0258 12.0073C24.9686 11.4074 25.4026 11.2326 26.63 10.3854C27.8981 9.57451 28.7322 7.95565 28.7322 6.33377C28.7322 2.10422 23.5784 0.768741 19.6182 0.590877C18.1432 0.581833 16.7904 0.581827 15.4409 0.584841L15.4375 0.590877ZM301.305 0.630059L291.479 0.666243V1.40784C293.103 1.47718 293.581 1.51335 293.896 2.53532C294.056 2.9242 294.015 3.80449 294.015 5.03748V21.1387C294.015 24.0629 294.293 24.7321 291.679 24.7321V25.5431H301.386L301.349 24.7321C298.694 24.7321 298.813 23.8157 298.813 21.1387V5.03748C298.813 2.14945 298.735 1.41085 301.308 1.41085V0.636094L301.305 0.630059ZM44.0646 0.666243V1.58269C45.0174 1.58269 45.4141 1.61887 45.9667 1.89923C46.6008 2.25194 47.3942 3.87081 48.3436 5.52585L60.2311 25.537H64.232C66.6903 21.205 70.6505 14.1568 73.7021 8.83893C75.7636 5.31783 77.269 2.49914 77.8624 1.82989C78.2184 1.441 79.2085 1.58269 79.8425 1.58269V0.666243L71.5219 0.702417V1.58269C71.5999 1.58269 73.9394 1.30233 73.7021 2.64083C73.5054 3.69897 64.232 19.1279 63.0826 21.5969L53.8499 6.13178C53.1752 5.00431 52.6225 4.15719 52.3445 3.48794C51.5918 1.90224 52.7412 1.58571 54.3246 1.58571V0.669251H44.0612L44.0646 0.666243ZM255.558 0.690356C254.965 0.687341 254.338 0.690356 253.666 0.690356C252.775 0.69337 251.812 0.699399 250.781 0.699399H238.103V1.47416C239.846 1.47416 240.562 1.93238 240.562 3.72911V23.3514C240.562 24.6899 239.453 24.6538 238.103 24.6176V25.534H248.011V24.6176C246.387 24.6176 245.434 24.4789 245.393 22.7515V15.4229C246.461 15.4923 247.414 15.4229 249.079 15.4229C249.672 15.4229 252.842 15.4591 253.795 15.4229C257.4 15.4229 259.064 19.2274 261.007 21.9044C262.631 24.1593 261.919 25.534 272.301 25.534C272.301 25.323 272.223 24.8648 272.223 24.6538C267.785 24.6899 266.951 22.3295 265.049 19.2997C263.269 16.5534 262.791 14.7567 258.193 14.2984C265.167 13.1378 266.992 10.3191 266.992 7.11154C266.951 3.8708 264.259 1.86305 259.858 0.979759C258.766 0.762705 257.335 0.699397 255.558 0.687338V0.690356ZM96.0531 0.699399V1.47416C97.4399 1.47416 97.8366 1.57967 98.2333 2.07408C98.63 2.5323 98.63 3.30706 98.63 4.68174V22.7907C98.63 24.4126 97.9179 24.6929 96.2124 24.7291V25.5401H121.137L124.029 20.3971L123.12 20.0805C122.168 21.4552 119.991 22.7937 116.543 22.7937H103.428V3.59346C103.428 2.42981 103.665 2.08011 103.984 1.79673C104.458 1.44402 104.696 1.51335 105.927 1.48019V0.705425H96.0599L96.0531 0.699399ZM201.651 0.699399L190.119 20.2162C189.089 21.9767 188.695 22.5767 188.217 23.3876C187.661 24.2317 187.342 24.7985 185.44 24.8316V25.537H194.039L194.08 24.7291C192.533 24.7653 191.862 24.6568 191.821 23.4238C191.821 23.0349 192.218 22.4018 192.811 21.4522L194.436 18.9139H211.077L213.06 21.9074C214.369 23.8458 214.01 24.5512 211.673 24.6568V25.537H221.974V24.5844C219.516 24.5844 219.638 23.9875 217.458 20.4272L205.296 0.696382H201.651V0.699399ZM250.581 2.49312C253.626 2.47804 256.715 2.6137 258.671 3.44875C260.336 4.15418 261.723 4.96512 261.723 7.43109C261.723 10.919 259.305 11.8355 257.481 12.4324C254.273 13.171 249.001 12.9238 245.397 12.96V2.56546C246.943 2.56546 248.753 2.50216 250.581 2.4901V2.49312ZM15.8037 2.69509C18.2314 2.69509 20.6082 2.7795 21.917 3.51809C23.6191 4.50388 24.0158 5.2093 24.0158 6.68949C24.0158 7.60594 23.1851 9.19165 22.3137 9.79156C20.2522 11.2718 16.5666 11.3411 13.8338 11.3411H7.29663V2.71017H13.3998C14.183 2.71017 14.9967 2.69811 15.8071 2.69811L15.8037 2.69509ZM202.6 4.43455L209.615 16.1314H195.944L202.6 4.43455ZM15.5901 13.5508C19.6182 13.5418 22.4799 13.6805 24.4905 15.0039C25.5619 15.7093 26.5893 16.9423 26.5893 18.4225C26.5893 22.5103 20.8456 22.7907 15.1764 22.7907H7.28985V13.5599C9.42933 13.5599 11.6502 13.596 13.7897 13.5599C14.4136 13.5569 15.0137 13.5508 15.5867 13.5508H15.5901Z" fill="white"/>
</svg>
