<svg width="230" height="27" viewBox="0 0 230 27" fill="none" xmlns="http://www.w3.org/2000/svg">
<path fill-rule="evenodd" clip-rule="evenodd" d="M51.9292 5.88751L52.8704 10.7692H52.3444C51.6247 7.72736 48.4968 6.45173 45.1751 6.45173C44.6492 6.45173 44.1232 6.45174 43.4035 6.64799V15.0377H44.6492C47.3619 15.0377 49.0227 14.1055 49.0227 12.1921H49.5487V19.0118H49.1058C48.8843 17.5399 48.2754 15.7 44.7322 15.7H43.3759V23.4274C43.3759 24.7276 44.0125 25.4635 46.1716 25.4635V25.9296H36.9262V25.4635C39.0023 25.4635 39.722 24.7276 39.722 23.4274V8.41424C39.722 7.2122 38.8916 6.37814 36.8155 6.37814V5.91205L51.9292 5.88751ZM70.6138 5.88751L71.5549 10.7692H71.029C70.3093 7.72736 67.1814 6.45173 63.8597 6.45173C63.3337 6.45173 62.8078 6.45174 62.0881 6.64799V15.0377H63.3337C66.0464 15.0377 67.7073 14.1055 67.7073 12.1921H68.2332V19.0118H67.818C67.5966 17.5399 66.9876 15.7 63.4445 15.7H62.1158V23.4274C62.1158 24.7276 62.7524 25.4635 64.9115 25.4635V25.9296H55.6661V25.4635C57.7422 25.4635 58.4619 24.7276 58.4619 23.4274V8.41424C58.4619 7.2122 57.6315 6.37814 55.5554 6.37814V5.91205L70.6138 5.88751ZM32.3866 5.88751V6.35361C30.8364 6.35361 29.8953 7.08955 29.8953 8.38971V23.4029C29.8953 24.7766 30.9472 25.439 32.3866 25.439V25.9051H23.6671V25.439C25.2172 25.3408 26.1584 24.8012 26.1584 23.4029V8.38971C26.1584 7.08955 25.2172 6.35361 23.6671 6.35361V5.88751H32.3866ZM21.0651 0.466093L22.0063 6.45173H21.591C20.2347 3.31172 17.8541 1.20203 13.1761 1.20203V22.3726C13.1761 24.6785 14.6432 25.4144 16.1933 25.4144V25.8805H5.81297V25.4144C7.28006 25.4144 9.02395 24.6785 9.02395 22.3726V1.20203C4.23517 1.20203 2.07606 3.14 0.415212 6.45173H0L0.719701 0.466093H21.0651ZM148.867 19.3307C148.867 22.4707 151.359 24.7521 154.985 24.7521C156.535 24.7521 158.417 24.1143 159.663 22.716L152.383 14.4244C150.611 15.0132 148.867 16.6568 148.867 19.3307ZM158.833 6.99142C158.833 4.44017 157.587 3.11548 155.096 3.11548C152.604 3.11548 151.137 4.41564 151.137 6.52533C151.137 8.9294 154.764 12.2411 154.764 12.2411C157.698 10.7692 158.833 9.29737 158.833 6.99142ZM155.289 12.8053L161.518 19.7232C161.518 19.7232 162.127 18.6193 162.237 17.5154C162.237 16.2152 161.518 15.7736 160.272 15.5774V15.2094H167.026C167.026 15.2094 167.137 15.5774 167.026 15.5774C165.78 15.7491 164.839 16.1171 163.898 16.7794C163.178 17.6135 162.763 18.3494 161.933 20.1893L164.839 23.3293C166.085 24.6294 167.746 25.3654 169.517 25.439V25.9051H162.237V25.439L160.161 23.2311C158.39 24.8012 155.594 26.1749 152.798 26.1749C148.342 26.1749 145.407 23.9671 145.407 20.9252C145.407 17.6135 148.951 15.5038 151.746 13.8357C151.746 13.8357 148.729 10.7938 148.729 8.04627C148.729 4.90626 151.442 2.52672 155.179 2.52672C158.5 2.52672 161.102 4.63642 161.102 7.2122C161.102 10.1314 157.282 11.4316 155.289 12.8053ZM200.603 0L200.907 8.02174H200.382C199.44 3.50798 196.119 0.932187 191.856 0.932187C186.763 0.932187 183.247 6.18189 183.247 13.1733C183.247 21.931 187.205 25.5126 192.603 25.5126C198.222 25.5126 200.382 20.9007 200.907 17.5889H201.433V21.0969C200.492 22.5688 197.696 25.9787 191.773 25.9787C184.299 25.9787 178.486 20.5572 178.486 13.2714C178.486 6.64799 185.046 0.564217 191.773 0.564217C195.731 0.564217 196.755 2.0361 198.305 2.0361C199.44 2.0361 199.966 1.39828 200.077 0H200.603ZM227.924 22.2008C229.059 22.2008 230 23.0349 230 24.0407C230 25.0465 229.059 25.7824 227.924 25.7824C226.789 25.7824 225.848 25.0465 225.848 24.0407C225.848 23.0104 226.761 22.2008 227.924 22.2008ZM207.44 15.5528C207.44 21.7102 210.125 25.488 214.388 25.488C218.762 25.488 221.447 21.98 221.447 15.5528C221.447 9.66533 219.066 6.35361 214.499 6.25548C209.848 6.18189 207.44 10.1314 207.44 15.5528ZM214.305 5.81392C220.727 5.81392 226.152 10.156 226.152 15.9453C226.152 21.563 221.059 25.8805 214.526 25.8805C208.077 25.8805 202.679 21.3668 202.679 15.9453C202.679 10.4994 207.966 5.81392 214.305 5.81392ZM79.444 10.1314L83.2916 18.3249H75.7071L79.444 10.1314ZM91.928 25.4144C91.0976 25.4144 90.4609 24.7766 90.0457 24.3105C89.7412 23.8444 80.9941 4.88173 80.9941 4.88173L73.022 22.2008C72.0809 24.4086 70.8352 25.4144 69.0637 25.4144V25.8805H75.5963V25.4144C74.24 25.3163 73.4095 24.7766 73.4095 23.9425C73.4095 23.3047 75.4856 18.8891 75.4856 18.8891H83.3746C83.3746 18.8891 85.5614 23.0349 85.6722 23.9425C85.7829 24.6785 84.5372 25.4144 83.2916 25.4144V25.8805H91.9003L91.928 25.4144ZM95.5542 22.3726C95.5542 24.2124 94.1979 25.0465 92.7585 25.4144V25.8805H99.2911V25.4144C97.4088 25.0465 96.3846 23.9426 96.3846 22.3726V9.39549L111.664 26.2485V10.0333C111.664 7.72736 113.132 6.35361 114.792 6.35361V5.88751H107.429V6.25548C109.505 6.8197 110.972 7.92361 110.972 10.0333V19.993L98.2946 5.91205H92.2602V6.28002C94.8622 6.37814 95.5819 8.31612 95.5819 8.75768L95.5542 22.3726ZM115.623 6.35361C116.536 6.35361 116.758 6.35361 117.505 7.55564C117.505 7.55564 124.453 17.4172 124.453 17.4908V23.3783C124.453 24.6785 123.207 25.4144 121.325 25.488V25.856H130.986V25.488C129.214 25.3899 128.079 24.654 128.079 23.3783V16.485C128.079 16.485 132.536 9.39549 132.951 8.75768C133.975 7.2858 135.442 6.35361 137.214 6.18189V5.91205H129.325L129.436 6.18189C131.927 6.18189 132.563 8.29158 131.622 9.59174L127.581 16.2152L122.598 8.48783C121.768 7.2858 122.792 6.18189 124.674 6.18189V5.91205H115.623V6.35361Z" fill="white"/>
</svg>
