<svg width="30" height="30" viewBox="0 0 30 30" fill="none" xmlns="http://www.w3.org/2000/svg">
<path d="M15 1.875L3.75 5.625V16.875C3.75 23.0889 8.78613 28.125 15 28.125C21.2139 28.125 26.25 23.0889 26.25 16.875V5.625L15 1.875ZM24.1406 16.875C24.1406 21.9229 20.0479 26.0156 15 26.0156C9.95215 26.0156 5.85938 21.9229 5.85938 16.875V7.20703L15 3.98438L24.1406 7.20703V16.875Z" fill="#9CA1CD"/>
<path d="M11.086 13.9189C10.9882 13.8207 10.872 13.7428 10.7441 13.6897C10.6161 13.6365 10.4789 13.6091 10.3404 13.6091C10.2018 13.6091 10.0646 13.6365 9.93664 13.6897C9.80869 13.7428 9.6925 13.8207 9.59475 13.9189C9.49655 14.0167 9.41862 14.1329 9.36545 14.2608C9.31228 14.3888 9.28491 14.526 9.28491 14.6646C9.28491 14.8031 9.31228 14.9403 9.36545 15.0683C9.41862 15.1962 9.49655 15.3124 9.59475 15.4102L13.3858 19.2012L13.4473 19.2627C13.5398 19.3553 13.6496 19.4288 13.7705 19.479C13.8914 19.5291 14.021 19.5549 14.1519 19.5549C14.2828 19.5549 14.4124 19.5291 14.5333 19.479C14.6542 19.4288 14.764 19.3553 14.8565 19.2627L21.4043 12.7148C21.497 12.6224 21.5705 12.5126 21.6206 12.3917C21.6707 12.2707 21.6966 12.1411 21.6966 12.0103C21.6966 11.8794 21.6707 11.7498 21.6206 11.6289C21.5705 11.508 21.497 11.3981 21.4043 11.3057L21.3223 11.2236C21.2298 11.131 21.12 11.0575 20.9991 11.0074C20.8782 10.9572 20.7486 10.9314 20.6177 10.9314C20.4868 10.9314 20.3572 10.9572 20.2363 11.0074C20.1154 11.0575 20.0056 11.131 19.9131 11.2236L14.1504 16.9834L11.086 13.9189Z" fill="#9CA1CD"/>
</svg>
