<svg width="30" height="30" viewBox="0 0 30 30" fill="none" xmlns="http://www.w3.org/2000/svg">
<path d="M6.25 18.75C6.25 19.8991 6.47633 21.0369 6.91605 22.0985C7.35578 23.1601 8.0003 24.1247 8.81282 24.9372C9.62533 25.7497 10.5899 26.3942 11.6515 26.8339C12.7131 27.2737 13.8509 27.5 15 27.5C16.1491 27.5 17.2869 27.2737 18.3485 26.8339C19.4101 26.3942 20.3747 25.7497 21.1872 24.9372C21.9997 24.1247 22.6442 23.1601 23.0839 22.0985C23.5237 21.0369 23.75 19.8991 23.75 18.75C23.75 17.6009 23.5237 16.4631 23.0839 15.4015C22.6442 14.3399 21.9997 13.3753 21.1872 12.5628C20.3747 11.7503 19.4101 11.1058 18.3485 10.6661C17.2869 10.2263 16.1491 10 15 10C13.8509 10 12.7131 10.2263 11.6515 10.6661C10.5899 11.1058 9.62533 11.7503 8.81282 12.5628C8.0003 13.3753 7.35578 14.3399 6.91605 15.4015C6.47633 16.4631 6.25 17.6009 6.25 18.75Z" stroke="#9CA1CD" stroke-width="1.5"/>
<path d="M15 10L10 5L12.5 2.5H15M15 10L20 5L17.5 2.5H15" stroke="#9CA1CD" stroke-width="1.5"/>
</svg>
