<svg width="23" height="22" viewBox="0 0 23 22" fill="none" xmlns="http://www.w3.org/2000/svg">
<path d="M22.9384 21.3125C21.0378 18.0403 17.9912 15.8061 14.4614 15.0006C16.1387 14.3163 17.5254 13.0732 18.3844 11.4837C19.2435 9.89419 19.5217 8.05696 19.1715 6.28588C18.8213 4.51479 17.8645 2.91975 16.4644 1.77327C15.0644 0.626784 13.308 0 11.4954 0C9.68283 0 7.92648 0.626784 6.52643 1.77327C5.12638 2.91975 4.16953 4.51479 3.81934 6.28588C3.46914 8.05696 3.74735 9.89419 4.60642 11.4837C5.46549 13.0732 6.85212 14.3163 8.5294 15.0006C5.00423 15.8026 1.95307 18.0403 0.0524255 21.3125C-0.00259357 21.4173 -0.0148473 21.5391 0.0182242 21.6527C0.0512957 21.7662 0.127135 21.8626 0.229899 21.9218C0.332663 21.9809 0.454405 21.9982 0.569694 21.9701C0.684983 21.942 0.784902 21.8706 0.84858 21.7708C3.09668 17.8971 7.07976 15.5838 11.4954 15.5838C15.9111 15.5838 19.8942 17.8971 22.1423 21.7708C22.1826 21.8405 22.2406 21.8983 22.3105 21.9385C22.3804 21.9787 22.4596 21.9999 22.5403 22C22.6212 22.0002 22.7007 21.9789 22.7705 21.9381C22.8759 21.8773 22.9529 21.7772 22.9844 21.6599C23.0159 21.5427 22.9993 21.4177 22.9384 21.3125ZM4.59235 7.79268C4.59235 6.43303 4.99721 5.10391 5.75573 3.97341C6.51425 2.8429 7.59236 1.96178 8.85373 1.44146C10.1151 0.921146 11.5031 0.785008 12.8421 1.05026C14.1812 1.31552 15.4112 1.97025 16.3766 2.93167C17.3421 3.89308 17.9995 5.118 18.2659 6.45153C18.5322 7.78505 18.3955 9.16729 17.873 10.4234C17.3506 11.6796 16.4658 12.7532 15.3306 13.5086C14.1954 14.264 12.8607 14.6672 11.4954 14.6672C9.66527 14.6651 7.91068 13.9401 6.61657 12.6513C5.32245 11.3626 4.59448 9.61526 4.59235 7.79268Z" fill="white"/>
</svg>
